{"title":"Akcent - Stay With Me [Music Video] 720p [Sbyky]","uid":9848864,"size":58887933,"categoryP":"video","categoryS":"music_videos","magnet":"?xt=urn:btih:f9fcad3d350da1232616e18d73fc08743f218c3b&amp;dn=Akcent+-+Stay+With+Me+%5BMusic+Video%5D+720p+%5BSbyky%5D&amp;tr=udp%3A%2F%2Ftracker.openbittorrent.com%3A80&amp;tr=udp%3A%2F%2Fopen.demonii.com%3A1337&amp;tr=udp%3A%2F%2Ftracker.coppersurfer.tk%3A6969&amp;tr=udp%3A%2F%2Fexodus.desync.com%3A6969","seeders":2,"leechers":0,"uploader":"Sbyky","files":1,"time":1396119838,"description":"\n\nGeneral\nComplete name                            : Akcent - Stay With Me [Music Video] 720p [Sbyky].mp4\nFormat                                   : MPEG-4\nFormat profile                           : Base Media / Version 2\nCodec ID                                 : mp42\nFile size                                : 56.2 MiB\nDuration                                 : 3mn 41s\nOverall bit rate mode                    : Variable\nOverall bit rate                         : 2 127 Kbps\nEncoded date                             : UTC 2010-04-22 23:15:04\nTagged date                              : UTC 2010-04-22 23:15:04\n\nVideo\nID                                       : 2\nFormat                                   : AVC\nFormat/Info                              : Advanced Video Codec\nFormat profile                           : &lt;a class=&quot;__cf_email__&quot; href=&quot;/cdn-cgi/l/email-protection&quot; data-cfemail=&quot;165e7f717e565a253827&quot;&gt;[email&amp;#160;protected]&lt;/a&gt;&lt;script cf-hash='f9e31' type=&quot;text/javascript&quot;&gt;\n/* &lt;![CDATA[ */!function(){try{var t=&quot;currentScript&quot;in document?document.currentScript:function(){for(var t=document.getElementsByTagName(&quot;script&quot;),e=t.length;e--;)if(t[e].getAttribute(&quot;cf-hash&quot;))return t[e]}();if(t&amp;&amp;t.previousSibling){var e,r,n,i,c=t.previousSibling,a=c.getAttribute(&quot;data-cfemail&quot;);if(a){for(e=&quot;&quot;,r=parseInt(a.substr(0,2),16),n=2;a.length-n;n+=2)i=parseInt(a.substr(n,2),16)^r,e+=String.fromCharCode(i);e=document.createTextNode(e),c.parentNode.replaceChild(e,c)}}}catch(u){}}();/* ]]&gt; */&lt;/script&gt;\nFormat settings, CABAC                   : Yes\nFormat settings, ReFrames                : 3 frames\nCodec ID                                 : avc1\nCodec ID/Info                            : Advanced Video Coding\nDuration                                 : 3mn 41s\nBit rate                                 : 1 999 Kbps\nMaximum bit rate                         : 3 733 Kbps\nWidth                                    : 1 280 pixels\nHeight                                   : 720 pixels\nDisplay aspect ratio                     : 16:9\nFrame rate mode                          : Constant\nFrame rate                               : 29.917 fps\nColor space                              : YUV\nChroma subsampling                       : 4:2:0\nBit depth                                : 8 bits\nScan type                                : Progressive\nBits/(Pixel*Frame)                       : 0.073\nStream size                              : 52.8 MiB (94%)\nTitle                                    : (C) 2007 Google Inc. v08.13.2007.\nEncoded date                             : UTC 2010-04-22 23:15:04\nTagged date                              : UTC 2010-04-22 23:15:05\n\nAudio\nID                                       : 1\nFormat                                   : AAC\nFormat/Info                              : Advanced Audio Codec\nFormat profile                           : LC\nCodec ID                                 : 40\nDuration                                 : 3mn 41s\nBit rate mode                            : Variable\nBit rate                                 : 125 Kbps\nMaximum bit rate                         : 277 Kbps\nChannel(s)                               : 2 channels\nChannel positions                        : Front: L R\nSampling rate                            : 44.1 KHz\nCompression mode                         : Lossy\nStream size                              : 3.31 MiB (6%)\nTitle                                    : (C) 2007 Google Inc. v08.13.2007.\nEncoded date                             : UTC 2010-04-22 23:15:04\nTagged date                              : UTC 2010-04-22 23:15:05\n\nShared By Sbyky\n","torrent":{"xt":"urn:btih:f9fcad3d350da1232616e18d73fc08743f218c3b","amp;dn":"Akcent+-+Stay+With+Me+%5BMusic+Video%5D+720p+%5BSbyky%5D","amp;tr":["udp%3A%2F%2Ftracker.openbittorrent.com%3A80","udp%3A%2F%2Fopen.demonii.com%3A1337","udp%3A%2F%2Ftracker.coppersurfer.tk%3A6969","udp%3A%2F%2Fexodus.desync.com%3A6969"],"infoHash":"f9fcad3d350da1232616e18d73fc08743f218c3b","infoHashBuffer":{"type":"Buffer","data":[249,252,173,61,53,13,161,35,38,22,225,141,115,252,8,116,63,33,140,59]},"announce":[],"urlList":[]}}